<svg xmlns="http://www.w3.org/2000/svg" viewBox="0 0 24 24" fill="none">
    <path d="M14 2H6a2 2 0 0 0-2 2v16a2 2 0 0 0 2 2h12a2 2 0 0 0 2-2V8l-6-6z" fill="#FF6600" opacity="0.2"/>
    <path d="M14 2H6a2 2 0 0 0-2 2v16a2 2 0 0 0 2 2h12a2 2 0 0 0 2-2V8l-6-6z" stroke="#FF6600" stroke-width="1.5" fill="none"/>
    <path d="M14 2v6h6" stroke="#FF6600" stroke-width="1.5" fill="none"/>
    <text x="12" y="16" font-family="Arial, sans-serif" font-size="6" font-weight="bold" fill="#FF6600" text-anchor="middle">SRC</text>
</svg>
